<svg xmlns="http://www.w3.org/2000/svg" width="50" height="50" viewBox="0 0 50.000001 50.000001"><path d="M40.031 47.754c-.27.197-14.7-7.398-15.034-7.398-.335 0-14.768 7.587-15.039 7.39-.27-.197 2.493-16.266 2.39-16.585-.104-.318-11.78-11.7-11.676-12.018.104-.32 16.24-2.656 16.512-2.853.27-.197 7.487-14.818 7.822-14.818.335 0 7.545 14.625 7.816 14.822.27.197 16.406 2.542 16.51 2.86.103.32-11.578 11.695-11.682 12.014-.103.318 2.653 16.389 2.381 16.586z" fill="none" stroke="#000" stroke-width="1.5"/></svg>
