<svg xmlns="http://www.w3.org/2000/svg" xmlns:xlink="http://www.w3.org/1999/xlink" width="50" height="50" viewBox="0 0 50.000001 50.000001"><defs><linearGradient id="a"><stop offset="0" stop-color="#ffe98d"/><stop offset="1" stop-color="#ffbc00"/></linearGradient><radialGradient xlink:href="#a" id="b" cx="24.658" cy="1027.342" fx="24.658" fy="1027.342" r="22.341" gradientTransform="matrix(1 0 0 .96214 0 38.898)" gradientUnits="userSpaceOnUse"/></defs><path d="M39.286 1047.72c-.241.188-13.644-6.273-13.95-6.262-.305.01-13.222 7.395-13.476 7.224-.253-.171 1.75-14.915 1.645-15.202-.105-.287-11.12-10.29-11.035-10.584.084-.294 14.725-2.945 14.966-3.134.24-.188 6.35-13.754 6.656-13.765.306-.011 7.351 13.094 7.605 13.265.254.17 15.044 1.79 15.148 2.077.105.287-10.18 11.037-10.265 11.331-.084.294 2.947 14.861 2.706 15.05z" transform="matrix(1.09518 .0387 -.0387 1.09518 37.548 -1101.211)" fill="url(#b)" stroke="#000" stroke-width="1.5"/></svg>
